<mxfile host="app.diagrams.net" modified="2022-03-07T02:41:38.847Z" agent="5.0 (Windows NT 10.0; Win64; x64) AppleWebKit/537.36 (KHTML, like Gecko) Chrome/96.0.4664.93 Safari/537.36" etag="LW8AOqGuGigWOXhOE8RJ" version="16.6.6" type="github">
  <diagram id="T1HYelCnXs14JVMMAoxy" name="第 1 页">
    <mxGraphModel dx="1038" dy="547" grid="1" gridSize="10" guides="1" tooltips="1" connect="1" arrows="1" fold="1" page="1" pageScale="1" pageWidth="827" pageHeight="1169" math="0" shadow="0">
      <root>
        <mxCell id="0" />
        <mxCell id="1" parent="0" />
        <mxCell id="tynJbk190-R1WrAZcUg8-1" value="" style="shape=image;verticalLabelPosition=bottom;labelBackgroundColor=default;verticalAlign=top;aspect=fixed;imageAspect=0;image=data:image/png,iVBORw0KGgoAAAANSUhEUgAAAMEAAAFXCAYAAAAbCip2AAAgAElEQVR4nO2dfbAcZZ3vv5N3DKiIBCUromxpmKelblnEGI0XSQQXJQku5+lTh7pZC12r9sIattQS75KqefouYQkLpSHAim6VXvQmdfo5CnjAFRZMuQa82cSrJt3jsupC3sg1kc29BM7JOSczz/2ju2f6bWZ65sz0OWee36eqczLdzzzPMz3Pt5+Xnt+3C0opBYLQmHkzXQGCmGlIBIT25CSCE9i15Q6sf8hp612HH9+O9TffgfU3b8euYwCO/Ri3Bv8niC5R6P2c4AR2bdmOnS0a7ppbtuL2lV7Dv/WxE97O5evw4J1rcYmf5vDj23HrsXUYvcXoaY0JveixCBxsu3kX4DfwJL5ALh5KNux9u7D+8YtCIvDy2tOgpDUNyyCI5izoWc77dmH9Qydw051bMbQ8LYHXqA/fcBtGNy5rmd2ehxqkPfZj3LrlIC65uCu1JjSkJz3B4ce349Z97/Ov4sFwyMDt3xrCGsAXiJNy9W4ydAoNjfY8dAd2Lb8ND24Edm3Zjj0rb8ODGYREEGnkMCfw2PPQHdi2z38RG+unERVSMi9PBNTwiemT0+qQg+f2AcAy3HTnVoy2EABwAs/tOwEcexa3bvkxDvv7dm0JCQmeGNpdcSKIOL2bEyC20gMAOIGdW+7AzkTKZbjpztvqc4d9z3pDouXrcPvKg9j2uIEHL37WG1KtBOALYc3Gddi1ZRe27aNJMdE5PRFBMPS55IYh3LR8Fw5vbNZIHWy7+dnQ6xPY9biDNSsN7HkZuGTjENY89Cy27XNwyQ23YQ1QXyFavhZDK5/Ftsd/jKGVrXoXgkinJ8OhNbdsxei3tnY0Zj/8+C7sxDoM1USzDEMrgT3HDAyl5LfmliGsOfYsdu1LHCKITMy6n00cPgbc9F/DV3WvZ7jkhnXeylICA0M3LMOefTQ3IDqjp3OCgD0P3dHwJpfHMtzk/2/NLbd5/3m5fmzozq0YavLuSzbehtFp1pHQl1xE0PxubnxO0IjwPYRluImWR4kukdt9AoKYrcy6OQFB5A2JgNAeEgGhPSQCQntIBIT2kAgI7SERENpDIiC0h0RAaA+JgNAeEgGhPSQCQntIBIT2kAgI7SERENpDIiC0h0RAaA+JgNAeEgGhPSQCQntIBIT25GK5AgCVl/8HXjvxCxRQwbx5871twXwU5s3HvPkLUJi3APPmzUdhwbkoLP+rvKpFEPn1BPMXnYs3/tFHMW/hG6FUFQpVqGoVUApQVX9TQHU8ryoRBIBch0NVFAoFnLv8o1i49BKoqoJSCqpahWd9pKDgC4EgciRHEShAnQEqY1jy1v8EFVz5EesJVDW/KnUBaRZQMCy4DV7nVS7ROTmLAEDlNFA9Cyi/J1BV/2/QG0yvJ3AtA4VCAYY1E83DRbncT+XoQX4iUApA1dvU2ZoAvKt/aJuWCFyMSBecc7hyZAaukgwlR0E5JbCu5SlhFgowZa/L0Zece4IqUA2LwN9Q/zutOYG0IFwOXmJgroAlW7+FIPIVASreps5Gh0Fd6gmklADn4GwAnPmv42mCsbRrwSgUUAi26KU2c7qG+Uf3wgznETnuwjJCxwomghK8oZ33WpqFyDAvtZx4XRM9iF+WKWvDxniZOpLjcCjoBaqAqkQav6pNkKfRE7gWLAlwzgEwDHAGSAupUwNXwBgEhoOeyBFg0kw28KzpmiFNFAomysKp93zDwIgMqm0Bw0Gv6EAwCdNv3KzkQCkbHAC3vTROqcEASJooGAJFO9TDOgJlM2V+JE0MYthPZ4NDwmznM/UZOYrA7wX8OUFtYgyEVon8v6/9qu3s3REJFxyce6/ZAAeDCzmSpgIOOzyeZiUMCwZIGbsiZk3XsFawLAlwO9p4WQmloJ4lG/VDDKUSB1wX7c17vUbMhAObh3b79XWFFa0vExiuFcpRausz9R/59gS17ax/wQ96Ab8TgL+98nibmUtYwvWGQsEuf0iUaAAAwBiK8V3FIoAyym4H6RrhjkC6Qe/UpPZm9uFWejlllAEUi8leIrW+xSJNqEPkerMsGAqFJ8Z1IQS9QQdZB1cxaYbGuQaECwASKVODWUKw8sNhBz2j3VwwRPfJtydAFcA8qMpEeltXtX/awB9yMAEnvOJUG2MD0opPIJPDDSklwDgGWAfpGsGKKAIoN+o2pIQEg3DsWg/mdnIDoEk5Xn5FpHQShE++cwJVAVQVp37/QmwCPI1VoWDIUUpbMw/G2BLRqUFsIihNmDItj6zpGuGNt11hRFdp/Hz8DwA3aPeuhUGRLpiGQmpRjiFccLsuMiJJ/nMCVDA5fjq0P7hHXAjVanHmbKUlIhPiBJyDw4UI3zRgAjazIuNwbiskRiJZ0zWBlRwom0fH/ZJ7eXAbjmD1Y4PAcCJzDtvmcEXzO+Gp5ZhlCKe9+upIfg/uO/Us8NpBABXgHV/Mpcg0pFmAWRZwWtxtzZqOmPvk1xOcvw54yzVAtZJbkQSRhdyCagAASxmw+I9yLZIgWpF/eOWCN+VeJEE0gx7mTWgPBdoT2kMiILSHREBoD4mA0B4SAaE9JAJCe0gEhPaQDSOhPWTDSGgP2TAS2kM2jCE6s1Ss25gQc5O+sGGMBJIUCk2DTxrTA2vDSMxzp/Uiek3/2DCGY4wdAQijzQbXTWvDoHfwIrvqMc82isLo0Eg3zY6R6Ab9ZcMY4Pv6uO7MuNa61iCEy2ErB1GvLA5b2eCugEGtedbQVzaMdeJDG+8qGu8ZOpoDxIc45kg8ASzhgolSg+D2uNlV67o1s2Mkpk//2DCG8Y157W5HmPsWjDxkdWhDIGIQ4ZZRBgNv4sniueNlNPBCm3aMRNv0jQ0jXFE3ozVlkytxp6RbHXLb8zaqUXYzjvdDVivEjNInNoyImW854LLTCWgDmlgdRiiyjBNrBhb3eCRmhP6wYUzQyHQrB1gRxYZGwB6eeTC5ws0W+sCGMQtFMDbN1aKGVodluJFdnhFYqhEwgOTEuQt1I6bF3LdhTCXwJw08QxmKRUTtxyNWiFkIGvdg5JkH0kw+4MKbJ0iYiYdf+Psi1ujt1a25HSPRCXPehrFGeGJcMCCKduTGV71hxqwQ28CzYHQhQk+WkTw2MQYQ3HhzRDn6hJqCCdjJG3LZ6pbNjpFoH+1sGAkiDtkwEtqTv/nW2f9HLnTErIIc6AjtoRhjQntIBIT2kAgI7SERENpDIiC0h0RAaA+JgNAeEgGhPWTDSGgP2TAS2kM2jIT2kA0joT19YcNYR8aCWFIc2+K+QSnB+FFbRwPJ+JVkOfEgF88rKGkPacpQHdLCx1zLCw5KOeZaRmPP09jnSg26yZKmGS3OXfpnTjt/QV7JqLwgjzyDhvrGhjEwqELIE0gpBS7rX4LXiAA77H5XcjEYOuGuZUDy+nHP0dFIhFSWhVPPw4/4SnxxEQcM36fIMw+CIxggrVgDcWENCrjchgqHlvnCMESDhiHNqOVjmg1lljStzm+Lc5f6mR0OmdGw2LUMGMIFt3P2VVJ5cWKnUr//rlLHv6XUyUfV//35LerVX35evX7wr9T4r7+kJl74ipr63RZVeVG0n7fNFcCUcJomUhxQrHmiJI5QDFDcblUFKDChgtwdwSKvUzJWgqW8B1yFiwrnY3MoJCri5xPbHy0/S5qmny7TuWucX8r7bR79rDZXyHCee0Ef2DB6QfVMDCPLxWP2uDowlIYFmCtgSQCuhUHhgtt2xDSMlZzmJsHuCKQLcB4NSmbFYt1yJkuaDHR+7jzryYYOHK4Fw3f267ZpYBbmvg2j/wW3NMXy3SICK8WMmdeGJ02/HNeCZ24x0J6jNSthWDBI04CRpZzGGSWNvBImYFnSNKKTcxerYSPrSdeCYQgg5uyXJ31iw5jNzY3byh+LN5mYBrbq/qROcic6Pk8k975EN2KjEhwLO2AUUieCrDQMwVy4nXqnNrV99K0es6RpQbZz14p4WRKmIeCCozSD3qr9Y8OYEc/c1u92pZmyeuE/p8AX6TAG01eZ4E8WfQE4aUOWxMTYTvijStOAAAdnntdpd8lycchuB9n63LVblmdfL5iE2U3LzDaZ+zaMGWwP0/DcnR0I5kIYySt0LfuS101LGU7h9RbBSkbHD/bwTbZ4yYY9LMDaNgSDP6RJuZqHr/5Z0rRB1nMXprH1JEPJ8Z/ZMENC6AMbxla2h83wPUvbRJqG/xCO6Uzk/Ct/MA8IzQ/ae8DOADhLOtO55XLdgS9LmrZp59y1fmaD7XiLBDPy8JLc1qGO/b1SR3codWSHemX/ZnXyZ3+uTu3/C/XqL/9SvX7wNnXm119Uky98RZ393RZVfclqM3N/CTCxTOoowYJ9tuKpx8NLh7biaUuUkaU7b7mv1VJeq+VHmyOxHBrk3eh96UukKrlEnLasmyVNQ7Kcuwaf2V/6TNQ7vkTaLG2PyU8ERx9U6sh2pY58TR3/6c11EfziVvXawdvUmV9/qS6Cw3d3VETQYOtb/IvzG1loS6x9+42jnib2RSWOp5eXrAtqX7AngAYNsElDaCiClPLSkmVJ05jW5y79M8eFHv6cKceCz5/p/kV3IBtGQnvIhpHQHrJhJLQn//BKEsAsJPmr2Ga/su03yIuU0B4KtCe0h0RAaA+JgNAeEgGhPSQCQntIBIT2kAgI7SEbRkJ7yIaR0B6yYSS0h2wYCe0hG8bYD8Sk2cKFImP4nzSjebdjUdjUwpHoOmTDmGYl2CvasShsZOFIdJ3cVodqw55qFZh3NvLlKtT/FjqZE0gTnn+TSrjQcdsJEvnB3sPRYG9uw8EMwUpwVBFmwYRhOfn6bxI1yIZxxmlhUUj0HLJhnAU0tCgkcoFsGGcNMXOsDBaORHcgG8a2rQR7RUzIGSwcie5ANoxpVoLlcq5xtY0tCok8IBvGmJVgkTHAdZGcPpfhpnj8T59WFoVEr8l3TqAqgKri1O9fiE2AO78/AHjLoIJJmImhjQur9qilBsctCXBea4CsVAJH3CXZhWWYkEygA+vSxgTP7eI2LY/OIPnPCVDB5Pjp0P7gHnEhVKvFbWbu2al7j+EKTyYHgWHHXzrlsFUJrhG9Y5t8/oBvF47wxNSAKNqdu08HxCe7wY27tLtgiYnxbJvI9w9kw0hoD9kwEtpDNoyE9pANY0fobVvYb5ANI6E9FGhPaA+JgNAeEgGhPSQCQntIBIT2kAgI7SERENpDNoyE9pANI6E9ZMNIaI8WNoxxNziCCNMXNoyB+1x6yImLci+shuJ2joUCjEYR+y2sH4mZpW9sGBvjRZ1Fo8K8X4F2FqgVeJKWIZyoG0RRGIkGPuPWj0RL+sOGMUdcaxDC5bATFijePrNgwjCLfsjkLLR+JBL0gQ1ja8JzgvDQSZopwxjXisb2Rq7srZwhPEtFSBkZms0+60cizNy3YWwTz3zLu4pz38G65vQgTRQMCV4b5vgB94EQ3DLKYOADjcPto5aKs9f6kajTJzaM3cCzX+G2EzL2ZSgNCzBXYsQFUHYzTmjrloqz2/qRADS0YWyIb+wbDJHqwyEBN2jURZbRciVqqTh7rR8JoB9sGLsMjz3kI/KAjAyWj80sFZtaPxIzRh/YMHYJVkQRQLmpP3ory8cslopJ60diZukLG8ZOiTb44GEZRvT+gWvBCO2oWz7Gr+T+PiYwXJtUZLN+JGaW/O4T1GwYFSbHT2PBgvn+/m7YMALBDbAI3E63OASHbXMUTAMFATDhPSqJlRw4MGCYhXptmIDjhPPwbr4NWAaMWHncVlDRGwKwFTx7lnAOwoEi79FZA9kwEtpDNoyE9pANI6E95EBHaA/FGBPaQyIgtIdEQGgPiYDQHhIBoT0kAkJ7SASE9pAICO0hG0ZCe8iGkdAesmEktEcLG0aCaEZf2DACaGl16PkNJZ87nDR/SHlGcUOHiNZpW5Wbfry9QPwseTSqR9hCMkuaZngmBY3tMD3nPtmynMgpjH2vqXXIkqYJfWHDmNnqkAk4aQH04Xy8jKKB9lw2aNzZ0rYq14tAqx9zBCCMdh0pmucROF4opfxoOxaxkQwi61qlaVoDz2QJMk0FvpsH5zxaTvyccLt+bqQZtbv0PlS0kWdJ04Kce4LAgKuxDWP7c4IGwe3cbvmlRbMxYQhAOPEGimSYZjtpO4CVSuAtXC3yyKNt/LhpmaICz4XDNyNLw7VgSQZRMyEIYrFLdR8oVsKwYHDliN/LZ0nTmr6xYZye1aF3MpkYRmvdtJNWN9JtKAEXI7KZC4cLa1AA4XMa6jnCsGIRCMzQsqTJQB/YMHbB6tA/mcU0s6DppO0QaZqQ4ChNQ2XdyKMTPBvK2JDIHYF0m9hXSgvCTatr1MQMQIoBWpY0zekLG8bMVoeuiJrtBpO4sgs3cTLjk94O0rYqt8H7JVc1v9TsdCOPLsAGwFl0SOSOSLiMI10DQc8a6yWaWl76joBZ0mSgb2wYM1kdJiaofiNJvXLUJ5qOCB1tJ22rclPeb/PgKt4u3cijGzAM8PCQyB8K8YH0q3PDXqB5GYmrf0dpPPrOhrEjq8MM9oodpe0AbtvgkDCnYdzbjTymQ2RI1HQo1MSIrMjA0q7m4at/ljQZ6FMbxnatDgP3uUb2ip2m7QTPGAzS7PBJOt3KYxqwEkrcGxK5IxJuePUmTIOJrZeHN6yK22K65TIQDK2ypMlAH9gwdsfqkJWGfXvF5DCq7Lodp+0IXoJggLSm8WyzbuQxDTjnQFnCkm56I0erZVPvQuaKwfo5di0MChe8FDx6K0uaDKi8OPqgUke2K3Xka+r4T29WJ3/25+rU/r9Qr/7iVvXawdvUmV9/SU2+8BV19ndbVPXw3W1mbisemlIAUEw4kRSOYJHjtY3bsax4SjquYqkyp21Vrnc8JX9HKJZWvxTazsPmCmAqdoraT9OU4DtpcO6UUjaHAhOqWRHx85d2OrKkaQbZMBLaQzaMhPaQDSOhPfmHV5IA2iTll6oz9lDw2VSX7kFepIT2UKA9oT0kAkJ7SASE9pAICO0hERDaQyIgtCc3B7qdO3dCKYWqUr7nULX+2t9X9fctWbIEqz6wCitWvDev6hEak5sIlFJYu24dLlq2zHtdO+D/LQDjY2MYHR3F6tWrsWfPc1BQuHzFiryqSGhKbsOhqh8/XKlWUalUUalUattZ/29w327p0qVYs+bD2LdvH06ePJlXFQlNya8nqHoNfPQHP2iY5pprrgEAPPLIIwCAhYsWYWJisveVI/SmvV9ed863v/1t9fLLL6vJySk1MTnpbROT6kxtm1BnzkyocX+bmjqrvvq17erIkSMt887yu/SZw1GCZYsLUCr5WWb3Z+sPcp0TKKUwOtq4JwizYcPGuhuFtrgoT8dOichEbiKo+g36+uvX1/ap8P/CMfY1B4rpB97PbRhKjkIpc3oJ07eGbG6ClzVdt943u8m1J4ACnnhiNFP6DRs2oqqq0FwFRB7kNe765jf/QR05ejQ0B/DnAbG5wPj4GTU2fkZNTZ1V99x7rzp8+HDLvGvj5iCmtlH8sFL1uNumMan+OL5B3HBQnh3EtobH7PG4Yy66PCeIxlMH2abFMsfjrJulC/ZHq+mXxe3M+c9FchPBw9/4hjpy5Kj63ve+l2mbmjqrtt3zd+pQVhHEG6Pf2CNflN9AeTQSPpHOETwUYO4LIt4wmwTph3c3TNvsszQUgdcow3W1RVIgrYtKTxctK21CnzX/uUVuIvj6ww+rI0eOqDNnJmrbeEoPEGyTU1Pq7m33qEOHDrXM22toSVeDqAtDsgGlp0stIHI8vbxG+XdxdcgXbOOspieC8GdIPyf9KYJ8V4cAPPnkE5nSr9+wwbvBlhXGEHfdY8UigDI8b6Yyykg30o2k8w9LM/4Aj9hMMF6e2zj/rsEGwJmAMAsoMAHHacNbJxMctiNgGAYMMAhnBrxMZ4Bcb5YpBXzik9cHe1JdF1Wo4XsP+MsbbwVEgsMOPEOliYKZe0VS8FeLXAuGIWAUhOdz2nUx6EWuS6SAwg/b6AlUtY0lUtdFGYg0BiklwIRvx1dEEYFlX7TJuOWyd5zBN5KNXgWD401hjfIvw3Vbv70tWAmOKvniFLBkqUtLlsFzAhw4GIQxaGFAA4HlOByqAgq47hOfTDuY2tarNaPeLHgGtLWnxPg+nNwOvkTPQ9QQBsyiijwSyBAuuO2Eun7f5JWhZuvXuhV7doKmGIQ14NS8N7vqDu1aMEcGYEeMPZPuy1Eh+j1byhN04oKVpgEB4T26CcMQ0oBhFlu+b86T1+Tj/h071KFDh+qT37Fx9XqTbXJqSll/c6d68aWXWuadWLJsZseXsE5MWg1GlgOZUE7axLjBTxlqq0G1OnT3ZxPR/FNsEkOfz5ukNyg/ls7LN5Zfmo1jIv+5T26WK/fv2IENGzZi+fKLM7/nrr+9G5/etAmXXvrOHtaM0J385gRVhUcffdQPpKnWAmlULbCm6gfWhB9mQXeMid5D5luE9lCMca70p43hXId6AkJ7qCcgtIdEQGgPiYDQHhIBoT0kAkJ7SASE9pAICO0hERDa0/PfDt11z31dyeevv0zPPiZ6w6zrCT7y4Q+l/iWIntHr32pv3Xavmpyc7GibmJhQExMTauu2e5uW0U2rws5sENuLGeikHLJj7B0z1hPs3bsX27dvx969e1OPq7ALXW6Q7aGOzIgIvv2d7+C8C9+GT/AhLLrgIjzw9W9EjocFkK8IvEB21ddxtd4vWc2uxXzOfXIXwYEDB/Chj1yFFe9+J371/D/jfZdditXrrsWBAwcAzKQACF3JXQS7d+/G0nPOwfdHRjA0NITHvjeCN513Hnbv3p0qgLaE4Fowwr/Rj1zuvCugYUV/tS/N6G/5469TkWY0FsAcSasMLCMcM9ClgPumn7F5ua5l1F5L0zsePx86krsIrr76aoyPj+PGgQHs2rULn7pxAONjr+PC5Zdg+Mln8E8/eQ7j4+MA2hWAgDEIDAehmY4Ak2b3v2RpomBKcLseBmpDQMSKcS0LGA7SOBBMwpxu4EyGz9isXFZyoHwvpaD+Tql/B35ZyV0EV1xxBZ7/6U/w25cOY+Waq/CvLx7Ck6OjmLfiKlx77bU4+Zb34ucHyx30BBx2eCzPShgWDK6wumd54tu6MOFEfH647UDE2hIr2ai3L4ZSide8kTqn9WfsTbn9zYxMjP9s0yb8x++P47HhnTh94jjeddl78PH3XIBnXjyN61ZciGMnTwFoc17Q0oaxC7RptRgMOdKHLR2Q8TN2vdw+Z8aWSFetWoXNmzdj1apVuPjC8/H0v72Cj73rPPzohT/g/cblc3xiHKzAcNjB0CWXp1rMVLlzmxkTQXi4837jcpz/hzKefuopGAtO4eK3vrn94VBKl+/ZMPKaDSNjgOtOY2AQsVoM41st1gtuYOU4TVp9xl6V2+fMiAjiq0BLlizB2jUfxMB1a3H5H1+KxYsXR9Jlwxuv11/6NoylYAzNUCzCbyjRNNnxrBZdMQgrMvxIW/nxrRyBkJVjVnxXikTlWn3G7OUmhawvuZhv/d1X7+99IUzAZhYKIftoHnu2FrcdCMOAWSgEO2BzCbONiyW3FWyzANMoQITzLRu11+A2HGHAMAso+HVzbA4js7O112slhNXqM2Yql8O2OQqmAc/U2tF+hYgsVwjtmXW/IiWIvCERENpDIiC0h0RAaA+JgNAeEgGhPSQCQntIBIT2kAgI7SERENrT098OvT42hqmpqWnnc84552DxokVdqBFBJOmpCJ744dM4Z+kb0e4TKH/h/BZvv+gteMOSxXh97AzedsFS/Mm1H6v9upQguklPRTD2+mtYtHCe98R65f90Gqr2+Naq/9hWpRQKBe8J9tVqFe+4cAkqk6fx6tgpKKVw/P+8hrGxMRIB0RN6KoKXXvx3/OqX/xvVahXVahVnz55FpVJBpVLB2bNnG27j4+M4ffo0Xn31VSil8MCDD6NarfayqoTG9HRiHP6V9tq1a/HmN785cvwDH/hAL4vvMb61CcXwznl6KoLg6n3zzTfj4MGD+OxnPwsA+MIXvgAA+PSnP42FCxcCqEeZKX9I1BnJ5wRTGyVa0VMRVPzG/IY3vAGnTp3Cffd5Nu333XcfJiYmsH//ftx11104evQojhw5gmPHjuH48eN45ZVXMDY21lZ4ZWAshZAfkFIKXBogfymiGbmEV7788stgjOHKK6/E7bffjs2bN2Pz5s3Yv38/nnvuOZw8eRKrV69OTHyff/55TE5Oti5AmjAEIByFeKQgt50ufhKiH8llTvDd734Xe/bswWc+8xn85je/wec///nasOdzn/scAGBqagoTExORLRsuLEuCieGEAOJI0xvDe72GP2Ty3dki+9IsEzNZLxJzkZ72BH96wwZUN1xfWx0KNhV7/SfXXYf9+/d3Vog7AukCxazB4tLEIHOgFPN8PQ0BoyAAbkMpDm9eYcI0Zd2zJ2S9WN9VgOkCCTcsYs7RUxFUq1VceeWVTdM8/dTTXSiJgWVtjExgOBAMK6HEhWdWVbdsAOeALJc9/85m1otGyGGCmLP0XAQA8OTPfodtO6NX+h9/9UbMnz8f1Wqll1VIUiwmnz0QszcsMoaay1Wb1ovE3COXJdKPr3wnrr3yHahWK95WqdSOTfsmGCuiCBdyhJaAiM7IRQT/uPff8Y//67dQ1bP1bdr3BAICV7huuk+HyGq9SMxZchHB/fJfar3AFZe9FVVVqa0cVSrTHw551ugSZiF+T8CFZUz3PkE71ovEXKSncwLli+DV184AAK774GX4b5s+5PUKoZ7g/PPPBzzjQKiUX5wuWLgAhcA6MRXvWWMDlgEjZI8IMAjHabl02opM1ovEnKWnNozPPvMMrvroR7Hxy/8TL//hNTz/8Gcid3MXLlyIx77/KN70lgswb16h9svSOBe//e247LJ349xzz+1VVQmNyWV16J6//Di++ei/4MSpMbz9redFXKmr1Sr+80c+3DSfecA3/hsAAAkWSURBVPPmYREF1RA9oqc9wVM/+hEqlao/H/BujFX8laFqxX9dreC/bNrUqyoQREvIlZrQHgq0J7SHREBoD4mA0B4SAaE9JAJCe0gEhPaQCAjtySXGGAB27tzp3SH2jbeUqtZfh824/Ocar/rAKqxY8d68qkdoTG4iUEph7bp1uGjZMu917YD/twCMj41hdHQUq1evxp49z0FB4fIVK/KqIqEpuQ2Hqp4PIyrVKiqVas2JrlKp4Kz/N7h5vXTpUqxZ82Hs27cPJ0+ezKuKhKbk1xNUvQY++oMfNExzzTXXAAAeeeQRAMDCRYswMZHBcoUgpkGOwyHvF6Xr12+oxwyosF+19+JTf3qjV7H58/HAgw+iXUfrmcEL3hFFu+5QQcwZcp0TKKUwOtq4JwizYcNG38W6Na5lwBDx8LHuBNR0Sq1OTMBxSsngfh9pelaRYTsXIl9yE0HVb9DXX7++ti/eC9Qny/V4g+wdAYetbATtyLUMGIYBzKAQwBiYKzHilsDS6uBasCQDY90IVvb8ktC2mDp9X/+Qa08ABTzxxGim9Bs2bPSjzDobDrFSCVyYkCMuSqktMAfcIopcQlgSpZQW5o5IuLwILilif0ZROfHNb/6DOnL0qDozMRnaJrztzIQaD7bxM2ps/Iyamjqr7rn3XnX48OGWeTuCKYArO7LXVhxQTDjxxIp5yvI2JlQ0haMECx1P5KuUsnnoOBS48N7D7VAxfp0coRiYilfDqx9TwvHqyeOFtKxn/PMjsjHh1PZH8/bKA7cbvk83chwOVQEFPNlGT6Cq2eYEaXhuEBx2eCwkTRTMMoSj4DAgmNB6oyZv3O5aFjCsoELHTcOqj+vbtWT0Xe6sWI/kWhYkL8FmgJmsfMt6RotwoEppwxoHtluAaVlweQkMLizDhOTBBJ43eJ9m5KW2rz/8sDpy5Ig6c2aito2n9ADBNjk1pe7edo86dOhQy7zTrmiJK6t/hU+/4qZdqX1sHuoNGvQuQe+R1hMk8qjn4yWP9wQd1jORT3R/vWdI7zGT79OHfFeHADz55BOZ0q/fsMG7wZaZ+sRYmgWYpgkZmigHxr2uWUCaeUuxDASX2GDFJpy3l0eHloy8BMEMWJYLXmKAlJBMwEm78rZRz4yFw3YEDMOAAQbhhM4JASDnm2VKAZ/45PXBnth9An9vqOErVe1oOMRtGzzuLF071qzb94YGMrzSJE0UEuOVdmEY4AxCjsAtASOWBOONl01b15PoJrkukQIKP2yjJ1DVdpZIw3gu0wXThCn9xhSxU2zQ/KSEjF0t3XIZtcF+wzx8S8YmztjBapVlupAuh+00qEOWeraFC2tQAMKBg0EYgxYGmty30JK8xl07HnhAHTp0ODLur21j4+r12DY5NaX++51b1UsvvdQy7/Sxrj9OD62qpK6WOEKxYIe/6lM7XluhqedtcyjExubeviZzglj50TlFckzesp6hFZ54PvH5is3D5yA5d2k8z9GH3ERw/44d6tChQ00bflwE1t/cqV7sWASq3ogTjbPx0mPkOBPKSUxqQ42+NglvMTGO1Cc+uU2fmDavZ1pjVpGlWyacVMGmnZP4+3QjN9+h+3fswIYNG7F8+cWZ33PX396NT2/ahEsvfWcPa0boTn5zgqrCo48+6gfSVGuBNKoWWFP1A2vCT5/s/I4xQWSFHOgI7aEYY0J7SASE9pAICO0hERDaQyIgtIdEQGgPiYDQHhIBoT0kAkJ7SASE9vT8t0N33XNfV/L56y9/sSv5EEScWdcTfOTDH0r9SxA9o9e/1d667V41OTnZ0TYxMaEmJibU1m339rqaLYkGpyRfp9Pgd//ErGLGeoK9e/di+/bt2Lt3b+pxFXahmwbSLKBQiG6G1a7ZlYtyeVrVaEi79XMto2Ga4Fijrf3PrQczIoJvf+c7OO/Ct+ETfAiLLrgID3z9G5HjYQFMVwQAPD/QIEbBEYAw2mwQDCVHQfUqNjdz/VyMSBecc7hyBAn31ZJTj8XwAqshnHp8hjNjfpSzm9xFcODAAXzoI1dhxbvfiV89/89432WXYvW6a3HgwAEAPRBAHFZCiQOu26NL+3RpVj9pQbgcvMTAXAFLJpMQ7ZO7CHbv3o2l55yD74+MYGhoCI99bwRvOu887N69O1UALYUgzTa7/vjQRsJMSS/NAgqGVbvaxl9nqos50rzumeoXyl5KgHNwNgDO/NfEtMldBFdffTXGx8dx48AAdu3ahU/dOIDxsddx4fJLMPzkM/innzyH8fFxABnnA9wOhWMG9ioCw426fv9qanfb1Cdkz1irCwQSjvEt82lQP9eCJQHOvWHOAGeAtEDD/OmTuwiuuOIKPP/Tn+C3Lx3GyjVX4V9fPIQnR0cxb8VVuPbaa3HyLe/Fzw+WO5sYSxOmZBDDsbG7K2DUrs4STJS67MImYZoSTDgRwyxuOxBZhuEZ6ueOSLjg4P4BNsDB4EKOkAqmy4xMjP9s0yb8x++P47HhnTh94jjeddl78PH3XIBnXjyN61ZciGMnTwFod14QNMTh5PMIwhNP5YBLo/XQph06tWfMXD8JS7jeUKj2Hm9I5AoLNCiaHjO2RLpq1Sps3rwZq1atwsUXno+n/+0VfOxd5+FHL/wB7zcub3tiHLhQl1qugDCUShxwJWbnRTSlflJ6DT0y5zD8oZYETQ2mx4yJIDzceb9xOc7/QxlPP/UUjAWncPFb39zecEia/iOPOjGbLYKxaa4WRawTw/j2jNPChWXJWG9R7zUEA6TVxV5NQ2ZEBPFVoCVLlmDtmg9i4Lq1uPyPL8XixYsj6ZrjDYPA7YwGtkGj4hhgAMBQLKJ+tQVqosqON1Z3xWBkour1TrG6+uP+zPXzXap5Ke0exWzv1eYGuZhv/d1X7+9Z3rWGJk0Uwl7mPPQkSVfAKIj0Y/AnsIYBM8iA27C5hNlG58BtBdsswDQKELV9DkTZQL1kr9dJSKBJ/aQl4IKj1EjgnIPDbPhIKKI1ZL5FaM+s+xUpQeQNiYDQHhIBoT0kAkJ7SASE9pAICO0hERDaQyIgtIdEQGgPiYDQHhIBoT0kAkJ7SASE9pAICO0hERDaQyIgtIdEQGgPiYDQHhIBoT3/H3wMhtfCfgfQAAAAAElFTkSuQmCC;" vertex="1" parent="1">
          <mxGeometry x="50" y="90" width="193" height="343" as="geometry" />
        </mxCell>
      </root>
    </mxGraphModel>
  </diagram>
</mxfile>
